<mxfile modified="2021-01-21T03:20:03.968Z" host="app.diagrams.net" agent="5.0 (Macintosh; Intel Mac OS X 10_11_6) AppleWebKit/537.36 (KHTML, like Gecko) Chrome/87.0.4280.141 Safari/537.36" etag="e7b6xmdTwknXgjAIngkI" version="14.2.4" type="github">
  <diagram id="Ht1M8jgEwFfnCIfOTk4-" name="Page-1">
    <mxGraphModel dx="820" dy="764" grid="1" gridSize="10" guides="1" tooltips="1" connect="1" arrows="1" fold="1" page="1" pageScale="1" pageWidth="1169" pageHeight="827" math="0" shadow="0">
      <root>
        <mxCell id="0" />
        <mxCell id="1" parent="0" />
        <mxCell id="lQgXDZfwhlYCzSRcnn0m-1" value="&lt;b&gt;&lt;font style=&quot;font-size: 20px&quot;&gt;应用系统&lt;/font&gt;&lt;/b&gt;" style="rounded=1;whiteSpace=wrap;html=1;fillColor=#fa6800;strokeColor=#C73500;shadow=1;sketch=0;glass=1;fontColor=#ffffff;" vertex="1" parent="1">
          <mxGeometry x="240" y="170" width="630" height="90" as="geometry" />
        </mxCell>
        <mxCell id="lQgXDZfwhlYCzSRcnn0m-4" value="&lt;b&gt;&lt;font style=&quot;font-size: 20px&quot;&gt;核心组件&lt;/font&gt;&lt;/b&gt;" style="rounded=1;whiteSpace=wrap;html=1;fillColor=#d5e8d4;strokeColor=#82b366;shadow=1;sketch=0;glass=1;gradientColor=#97d077;" vertex="1" parent="1">
          <mxGeometry x="240" y="300" width="630" height="90" as="geometry" />
        </mxCell>
        <mxCell id="lQgXDZfwhlYCzSRcnn0m-5" value="&lt;span style=&quot;font-size: 20px&quot;&gt;&lt;b&gt;灾备中心&lt;/b&gt;&lt;/span&gt;" style="rounded=1;whiteSpace=wrap;html=1;strokeColor=#23445d;shadow=1;sketch=0;glass=1;fillColor=#66FFFF;" vertex="1" parent="1">
          <mxGeometry x="245" y="420" width="160" height="90" as="geometry" />
        </mxCell>
        <mxCell id="lQgXDZfwhlYCzSRcnn0m-6" value="&lt;span style=&quot;font-size: 20px&quot;&gt;&lt;b&gt;硬件&lt;/b&gt;&lt;/span&gt;" style="rounded=1;whiteSpace=wrap;html=1;fillColor=#dae8fc;strokeColor=#6c8ebf;shadow=1;sketch=0;glass=1;gradientColor=#7ea6e0;" vertex="1" parent="1">
          <mxGeometry x="245" y="670" width="630" height="90" as="geometry" />
        </mxCell>
        <mxCell id="lQgXDZfwhlYCzSRcnn0m-7" value="&lt;b&gt;&lt;font style=&quot;font-size: 20px&quot;&gt;业务系统&lt;/font&gt;&lt;/b&gt;" style="rounded=1;whiteSpace=wrap;html=1;fillColor=#f8cecc;strokeColor=#b85450;shadow=1;sketch=0;glass=1;gradientColor=#ea6b66;" vertex="1" parent="1">
          <mxGeometry x="240" y="50" width="630" height="90" as="geometry" />
        </mxCell>
        <mxCell id="lQgXDZfwhlYCzSRcnn0m-8" value="&lt;b&gt;&lt;font style=&quot;font-size: 20px&quot;&gt;数据中心&lt;/font&gt;&lt;/b&gt;" style="rounded=1;whiteSpace=wrap;html=1;strokeColor=#10739e;shadow=1;sketch=0;glass=1;fillColor=#33FFFF;" vertex="1" parent="1">
          <mxGeometry x="445" y="420" width="420" height="90" as="geometry" />
        </mxCell>
        <mxCell id="lQgXDZfwhlYCzSRcnn0m-9" value="&lt;b&gt;&lt;font style=&quot;font-size: 20px&quot;&gt;云平台&lt;/font&gt;&lt;/b&gt;" style="rounded=1;whiteSpace=wrap;html=1;strokeColor=#10739e;shadow=1;sketch=0;glass=1;fillColor=#b1ddf0;" vertex="1" parent="1">
          <mxGeometry x="245" y="540" width="160" height="90" as="geometry" />
        </mxCell>
        <mxCell id="lQgXDZfwhlYCzSRcnn0m-10" value="&lt;b&gt;&lt;font style=&quot;font-size: 20px&quot;&gt;硬件虚拟化环境&lt;/font&gt;&lt;/b&gt;" style="rounded=1;whiteSpace=wrap;html=1;fillColor=#b1ddf0;strokeColor=#10739e;shadow=1;sketch=0;glass=1;" vertex="1" parent="1">
          <mxGeometry x="445" y="540" width="420" height="90" as="geometry" />
        </mxCell>
      </root>
    </mxGraphModel>
  </diagram>
</mxfile>
